<svg width="32" height="32" viewBox="0 0 32 32" fill="none" xmlns="http://www.w3.org/2000/svg">
<path d="M27.3623 9.63751C28.1991 10.4723 28.863 11.464 29.3159 12.5558C29.7689 13.6476 30.0021 14.818 30.0021 16C30.0021 17.182 29.7689 18.3524 29.3159 19.4442C28.863 20.536 28.1991 21.5277 27.3623 22.3625" stroke="white" stroke-width="2" stroke-linecap="round" stroke-linejoin="round"/>
<path d="M10 11V21" stroke="white" stroke-width="2" stroke-linecap="round" stroke-linejoin="round"/>
<path d="M23.8252 13.175C24.1971 13.5455 24.4922 13.9858 24.6935 14.4706C24.8949 14.9553 24.9985 15.4751 24.9985 16C24.9985 16.525 24.8949 17.0448 24.6935 17.5295C24.4922 18.0143 24.1971 18.4546 23.8252 18.825" stroke="white" stroke-width="2" stroke-linecap="round" stroke-linejoin="round"/>
<path d="M6 5L26 27" stroke="white" stroke-width="2" stroke-linecap="round" stroke-linejoin="round"/>
<path d="M19 19.3V28L10 21H4C3.73478 21 3.48043 20.8947 3.29289 20.7071C3.10536 20.5196 3 20.2652 3 20V12C3 11.7348 3.10536 11.4805 3.29289 11.2929C3.48043 11.1054 3.73478 11 4 11H10L10.85 10.3375" stroke="white" stroke-width="2" stroke-linecap="round" stroke-linejoin="round"/>
<path d="M14.0249 7.875L18.9999 4V13.35" stroke="white" stroke-width="2" stroke-linecap="round" stroke-linejoin="round"/>
</svg>
