<svg width="193" height="37" viewBox="0 0 193 37" fill="none" xmlns="http://www.w3.org/2000/svg">
<path d="M15.4497 14.5561H5.02727L2.88148 19.3289H0L8.88968 0.231445H11.6486L20.5382 19.3289H17.5985L15.4497 14.5561ZM14.4718 12.3735L10.2446 3.01483L6.02046 12.3735H14.4718Z" fill="white"/>
<path d="M29.0509 0.231445H31.8496V16.9563H42.4559V19.3289H29.0509V0.231445Z" fill="white"/>
<path d="M53.3381 2.60407H46.6249V0.231445H62.8409V2.60407H56.097V19.3289H53.3381V2.60407Z" fill="white"/>
<path d="M85.6874 16.9563V19.3289H71.4731V0.231445H85.298V2.60407H74.2626V8.47126H84.0719V10.7887H74.2626V16.9563H85.6874Z" fill="white"/>
<path d="M108.914 19.3289L104.69 13.4586C104.165 13.4954 103.756 13.5138 103.464 13.5138H98.6172V19.3381H95.8185V0.240601H103.457C105.996 0.240601 107.992 0.831202 109.447 2.01241C110.902 3.19361 111.63 4.82237 111.63 6.89867C111.688 8.24027 111.295 9.56264 110.514 10.6549C109.733 11.7472 108.608 12.5465 107.32 12.9253L111.964 19.3381L108.914 19.3289ZM107.43 10.0867C108.364 9.34282 108.831 8.27912 108.831 6.8956C108.831 5.51208 108.364 4.45247 107.43 3.71677C106.498 2.97903 105.147 2.61016 103.375 2.61016H98.6172V11.1933H103.375C105.147 11.1974 106.498 10.8285 107.43 10.0867Z" fill="white"/>
<path d="M133.177 16.9563V10.7887H123.352V8.47126H133.177V2.60407H122.141V0.231445H135.966V19.3289H121.758V16.9563H133.177Z" fill="white"/>
<path d="M159.591 9.66976H162.277V17.1187C161.272 17.9203 160.129 18.5312 158.905 18.9212C157.602 19.3363 156.241 19.5432 154.874 19.5342C153.015 19.5627 151.178 19.1265 149.531 18.2652C147.991 17.463 146.699 16.2558 145.794 14.7737C145.106 13.6519 144.656 12.4005 144.472 11.0972C144.288 9.794 144.375 8.46694 144.727 7.19872C145.079 5.93049 145.688 4.74828 146.516 3.72573C147.345 2.70319 148.375 1.86221 149.543 1.25521C151.209 0.402065 153.06 -0.0284767 154.932 0.0014611C156.389 -0.0191489 157.837 0.235655 159.199 0.752481C160.438 1.22653 161.552 1.97722 162.457 2.94731L160.722 4.63943C159.196 3.18096 157.153 2.38633 155.042 2.42926C153.646 2.40599 152.267 2.72934 151.027 3.37034C149.874 3.96828 148.911 4.87459 148.243 5.9882C147.582 7.13327 147.235 8.43203 147.235 9.75406C147.235 11.0761 147.582 12.3748 148.243 13.5199C148.912 14.6359 149.875 15.5467 151.027 16.1531C152.255 16.7983 153.625 17.126 155.012 17.1064C156.63 17.1462 158.226 16.7207 159.61 15.8803L159.591 9.66976Z" fill="white"/>
<path d="M176.718 18.2774C175.168 17.4645 173.869 16.243 172.963 14.7453C172.058 13.2475 171.579 11.5304 171.579 9.78006C171.579 8.02968 172.058 6.31265 172.963 4.81487C173.869 3.31709 175.168 2.09563 176.718 1.28275C178.371 0.448277 180.197 0.0135498 182.048 0.0135498C183.9 0.0135498 185.726 0.448277 187.379 1.28275C188.927 2.09785 190.222 3.3201 191.126 4.8176C192.03 6.3151 192.508 8.03097 192.508 9.78006C192.508 11.5291 192.03 13.245 191.126 14.7425C190.222 16.24 188.927 17.4623 187.379 18.2774C185.726 19.1118 183.9 19.5466 182.048 19.5466C180.197 19.5466 178.371 19.1118 176.718 18.2774ZM185.938 16.1653C187.064 15.5487 188.001 14.6387 188.651 13.5321C189.302 12.3888 189.645 11.0957 189.645 9.78006C189.645 8.46439 189.302 7.17136 188.651 6.028C188.001 4.92139 187.064 4.01145 185.938 3.39482C184.749 2.74954 183.414 2.42123 182.061 2.44147C180.7 2.42344 179.357 2.75149 178.158 3.39482C177.014 4.00243 176.06 4.91349 175.4 6.028C174.749 7.17136 174.406 8.46439 174.406 9.78006C174.406 11.0957 174.749 12.3888 175.4 13.5321C176.06 14.6466 177.014 15.5577 178.158 16.1653C179.357 16.8086 180.7 17.1367 182.061 17.1186C183.414 17.1389 184.749 16.8106 185.938 16.1653Z" fill="white"/>
<path d="M66.8209 36.627V36.727H66.9209H67.2397H67.3397V36.627V30.1007V30.0007H67.2397H66.9639H66.9075L66.8783 30.0489L63.8094 35.119L60.7315 30.0488L60.7023 30.0007H60.646H60.3732H60.2732V30.1007V36.627V36.727H60.3732H60.6951H60.7951V36.627V31.1182L63.6415 35.7748L63.6707 35.8227H63.7268H63.9046H63.9609L63.9901 35.7745L66.8209 31.1025V36.627Z" fill="white" stroke="white" stroke-width="0.2"/>
<path d="M84.3313 36.3358V36.2354L84.2309 36.2358L80.0183 36.2507V33.5727H83.6489H83.7489V33.4727V33.1661V33.0661H83.6489H80.0183V30.4889H84.0934H84.1934V30.3889V30.1007V30.0007H84.0934H79.5841H79.4841V30.1007V36.6423V36.7423H79.5841H84.2313H84.3313V36.6423V36.3358Z" fill="white" stroke="white" stroke-width="0.2"/>
<path d="M95.9688 30.0008H95.8687V30.1008V36.6331V36.7331H95.9688H98.6194C99.2927 36.7456 99.9593 36.5982 100.565 36.3031C101.112 36.037 101.573 35.6213 101.893 35.1041L101.893 35.1041L101.895 35.102C102.204 34.5755 102.367 33.976 102.367 33.3654C102.367 32.7548 102.204 32.1553 101.895 31.6288L101.895 31.6288L101.893 31.6267C101.573 31.1104 101.112 30.6957 100.565 30.4308C99.9598 30.1342 99.2928 29.9868 98.6193 30.0008H95.9688ZM98.6042 36.2358L98.6018 36.2358L96.4029 36.2387V30.492H98.6019V30.492L98.6041 30.492C99.1948 30.4793 99.78 30.6072 100.312 30.8651C100.774 31.0917 101.162 31.4451 101.431 31.8839C101.691 32.3344 101.828 32.8453 101.828 33.3654C101.828 33.8855 101.691 34.3965 101.431 34.847C101.162 35.2858 100.774 35.6391 100.312 35.8658C99.7798 36.1226 99.1946 36.2494 98.6042 36.2358Z" fill="white" stroke="white" stroke-width="0.2"/>
<path d="M113.904 30.0007H113.804V30.1007V36.627V36.727H113.904H114.239H114.339V36.627V30.1007V30.0007H114.239H113.904Z" fill="white" stroke="white" stroke-width="0.2"/>
<path d="M125.755 36.727H125.818L125.845 36.6703L126.738 34.8142H130.729L131.628 36.6705L131.655 36.727H131.718H132.082H132.242L132.172 36.5832L128.99 30.0569L128.963 30.0007H128.9H128.576H128.513L128.486 30.0569L125.304 36.5832L125.234 36.727H125.394H125.755ZM126.963 34.3444L128.738 30.6888L130.504 34.3444H126.963Z" fill="white" stroke="white" stroke-width="0.2"/>
</svg>
